<?xml version="1.0" standalone="no"?>
<!DOCTYPE svg PUBLIC "-//W3C//DTD SVG 20010904//EN"
 "http://www.w3.org/TR/2001/REC-SVG-20010904/DTD/svg10.dtd">
<svg version="1.0" xmlns="http://www.w3.org/2000/svg"
 width="500.000000pt" height="500.000000pt" viewBox="0 0 500.000000 500.000000"
 preserveAspectRatio="xMidYMid meet">
<metadata>
Created by potrace 1.11, written by Peter Selinger 2001-2013
</metadata>
<g transform="translate(0.000000,500.000000) scale(0.100000,-0.100000)"
fill="#000000" stroke="none">
<path d="M2220 4059 c-116 -14 -224 -37 -350 -75 -121 -37 -338 -138 -347
-161 -4 -11 35 -135 98 -309 7 -21 11 -20 111 30 194 98 348 136 575 143 130
4 177 2 240 -12 118 -26 197 -68 274 -144 107 -107 152 -226 165 -432 l7 -106
-184 -6 c-839 -27 -1349 -306 -1471 -805 -28 -115 -30 -315 -4 -417 24 -96 94
-238 153 -310 324 -399 1040 -393 1439 12 31 32 63 68 72 81 30 46 38 27 57
-153 l19 -175 233 0 c129 0 232 4 229 8 -2 4 -12 68 -22 142 -14 113 -18 271
-24 960 -8 916 -7 900 -77 1113 -80 242 -225 413 -438 517 -189 93 -479 131
-755 99z m778 -1706 c-3 -283 -4 -289 -30 -361 -77 -211 -269 -383 -489 -436
-74 -18 -250 -21 -318 -5 -250 57 -392 317 -326 598 60 254 322 423 725 470
147 17 156 18 303 19 l138 2 -3 -287z"/>
</g>
</svg>
