<?xml version="1.0" standalone="no"?>
<!DOCTYPE svg PUBLIC "-//W3C//DTD SVG 20010904//EN"
 "http://www.w3.org/TR/2001/REC-SVG-20010904/DTD/svg10.dtd">
<svg version="1.0" xmlns="http://www.w3.org/2000/svg"
 width="500.000000pt" height="500.000000pt" viewBox="0 0 500.000000 500.000000"
 preserveAspectRatio="xMidYMid meet">
<metadata>
Created by potrace 1.11, written by Peter Selinger 2001-2013
</metadata>
<g transform="translate(0.000000,500.000000) scale(0.100000,-0.100000)"
fill="#000000" stroke="none">
<path d="M3322 4143 c-11 -32 -238 -701 -505 -1488 -267 -786 -489 -1438 -492
-1448 -7 -16 5 -17 196 -15 l203 3 155 473 155 472 532 0 532 0 126 -372 c69
-205 141 -418 160 -473 l33 -100 206 -3 c114 -1 207 1 207 6 0 8 -973 2869
-1006 2960 l-16 42 -233 0 -233 0 -20 -57z m302 -498 c48 -173 136 -444 344
-1057 l51 -148 -450 0 c-266 0 -449 4 -449 9 0 5 65 201 144 435 131 387 218
663 261 836 30 119 38 145 41 135 2 -5 28 -100 58 -210z"/>
<path d="M892 3389 c-157 -21 -353 -84 -469 -150 l-52 -30 28 -77 c16 -42 36
-100 45 -129 l17 -52 87 44 c194 98 439 138 614 100 95 -20 150 -46 209 -102
87 -82 138 -215 139 -364 l0 -66 -162 -6 c-547 -21 -914 -188 -1059 -482 -48
-97 -69 -191 -69 -310 0 -295 176 -526 460 -602 89 -24 309 -24 399 0 163 44
266 102 379 215 46 45 85 82 86 82 2 0 9 -51 15 -112 20 -178 -5 -158 197
-158 l174 0 -1 28 c0 15 -5 52 -10 82 -6 30 -14 361 -18 735 -9 735 -9 733
-68 899 -78 222 -250 375 -488 437 -94 24 -335 34 -453 18z m628 -1306 c0
-231 -7 -272 -61 -374 -96 -180 -297 -289 -505 -276 -147 9 -254 78 -311 201
-25 55 -28 71 -27 166 0 134 22 196 100 279 124 135 355 205 692 209 l112 2 0
-207z"/>
</g>
</svg>
