<?xml version="1.0" standalone="no"?>
<!DOCTYPE svg PUBLIC "-//W3C//DTD SVG 20010904//EN"
 "http://www.w3.org/TR/2001/REC-SVG-20010904/DTD/svg10.dtd">
<svg version="1.0" xmlns="http://www.w3.org/2000/svg"
 width="500.000000pt" height="500.000000pt" viewBox="0 0 500.000000 500.000000"
 preserveAspectRatio="xMidYMid meet">
<metadata>
Created by potrace 1.11, written by Peter Selinger 2001-2013
</metadata>
<g transform="translate(0.000000,500.000000) scale(0.100000,-0.100000)"
fill="#000000" stroke="none">
<path d="M339 2903 c-1 -802 -4 -1515 -7 -1586 l-7 -127 166 0 c191 0 179 -8
179 106 0 93 12 244 19 244 4 0 26 -29 49 -64 95 -145 261 -262 437 -307 102
-26 277 -35 374 -20 360 56 645 308 771 682 58 171 84 449 61 648 -68 578
-443 942 -946 918 -241 -11 -423 -85 -570 -232 -34 -33 -76 -84 -95 -114 l-35
-54 -3 682 -2 681 -195 0 -195 0 -1 -1457z m1197 156 c205 -63 359 -239 423
-483 68 -259 43 -552 -65 -775 -82 -169 -229 -289 -404 -332 -79 -20 -242 -17
-315 5 -217 65 -384 244 -430 461 -21 102 -21 528 1 632 56 272 265 476 529
517 58 9 194 -4 261 -25z"/>
<path d="M3340 4213 c-87 -5 -319 -32 -382 -44 l-58 -12 0 -1479 c0 -1174 3
-1479 13 -1483 33 -11 255 -26 462 -32 439 -11 728 33 960 147 175 86 290 199
370 365 54 113 74 192 82 325 20 363 -191 661 -551 780 l-69 23 89 43 c169 82
287 194 359 339 45 92 65 180 65 290 0 248 -103 436 -313 573 -135 88 -299
139 -516 161 -94 10 -375 12 -511 4z m550 -318 c162 -38 294 -126 349 -233 35
-69 54 -168 48 -257 -15 -236 -178 -403 -447 -460 -52 -11 -136 -15 -311 -15
l-239 0 0 484 0 484 68 7 c37 3 74 8 82 10 8 2 96 3 195 1 127 -2 202 -8 255
-21z m-90 -1279 c191 -29 332 -91 432 -191 88 -87 135 -194 145 -331 15 -212
-64 -387 -222 -493 -151 -101 -294 -135 -575 -135 -107 0 -216 4 -242 8 l-48
7 0 575 0 574 208 0 c128 0 243 -6 302 -14z"/>
</g>
</svg>
