<?xml version="1.0" standalone="no"?>
<!DOCTYPE svg PUBLIC "-//W3C//DTD SVG 20010904//EN"
 "http://www.w3.org/TR/2001/REC-SVG-20010904/DTD/svg10.dtd">
<svg version="1.0" xmlns="http://www.w3.org/2000/svg"
 width="500.000000pt" height="500.000000pt" viewBox="0 0 500.000000 500.000000"
 preserveAspectRatio="xMidYMid meet">
<metadata>
Created by potrace 1.11, written by Peter Selinger 2001-2013
</metadata>
<g transform="translate(0.000000,500.000000) scale(0.100000,-0.100000)"
fill="#000000" stroke="none">
<path d="M3730 4418 c-334 -18 -620 -135 -830 -340 -229 -222 -384 -536 -450
-908 -28 -156 -38 -502 -21 -672 34 -324 127 -596 288 -837 192 -289 432 -453
778 -531 116 -27 395 -38 516 -21 212 30 406 107 556 220 133 100 307 296 328
369 6 20 -2 32 -44 73 -41 39 -58 49 -85 49 -29 0 -39 -7 -69 -47 -43 -59
-147 -159 -207 -200 -159 -108 -359 -163 -592 -163 -158 0 -249 20 -374 80
-217 105 -400 338 -507 646 -120 344 -128 808 -22 1219 117 455 330 712 659
795 98 25 290 27 384 5 181 -43 317 -158 363 -308 18 -58 21 -86 17 -170 -6
-119 -30 -200 -89 -298 -44 -74 -47 -89 -19 -114 17 -15 33 -17 109 -13 76 5
102 11 164 40 166 79 262 232 274 438 14 247 -110 433 -377 566 -199 99 -442
139 -750 122z"/>
<path d="M1165 3428 c-486 -31 -839 -349 -947 -850 -32 -150 -32 -448 0 -595
91 -419 349 -720 717 -836 121 -38 229 -50 384 -44 274 11 481 100 678 291 76
74 83 84 83 120 0 31 -7 45 -39 77 -52 53 -80 51 -156 -6 -81 -61 -215 -129
-305 -155 -105 -30 -299 -38 -394 -16 -118 28 -191 70 -286 165 -71 71 -94
103 -133 181 -26 52 -59 140 -74 195 -26 96 -27 110 -27 345 0 215 2 256 21
336 62 264 186 449 352 527 52 24 80 31 156 35 109 5 176 -8 258 -51 72 -38
129 -101 159 -176 18 -45 22 -77 22 -166 1 -126 -11 -178 -63 -280 -20 -38
-37 -73 -39 -77 -2 -4 6 -16 17 -27 17 -17 34 -21 79 -21 218 1 395 155 421
368 24 195 -49 369 -209 493 -169 132 -386 185 -675 167z"/>
</g>
</svg>
