<?xml version="1.0" standalone="no"?>
<!DOCTYPE svg PUBLIC "-//W3C//DTD SVG 20010904//EN"
 "http://www.w3.org/TR/2001/REC-SVG-20010904/DTD/svg10.dtd">
<svg version="1.0" xmlns="http://www.w3.org/2000/svg"
 width="500.000000pt" height="500.000000pt" viewBox="0 0 500.000000 500.000000"
 preserveAspectRatio="xMidYMid meet">
<metadata>
Created by potrace 1.11, written by Peter Selinger 2001-2013
</metadata>
<g transform="translate(0.000000,500.000000) scale(0.100000,-0.100000)"
fill="#000000" stroke="none">
<path d="M1660 4025 c-136 -37 -369 -177 -355 -213 4 -9 11 -29 17 -43 9 -26
12 -27 104 -31 72 -3 98 -8 112 -21 15 -16 17 -50 20 -348 3 -314 2 -330 -15
-325 -155 47 -411 52 -581 11 -37 -9 -113 -39 -168 -65 -246 -119 -421 -374
-463 -674 -25 -179 -8 -439 40 -591 140 -454 585 -611 963 -341 60 43 145 127
199 196 15 20 27 29 27 20 0 -8 5 -48 10 -88 24 -187 119 -273 286 -259 101 8
249 90 343 190 l23 25 -32 47 c-17 25 -35 44 -38 43 -103 -56 -180 -70 -230
-44 -18 9 -33 18 -34 19 -2 1 -5 549 -8 1217 -5 1316 -2 1244 -58 1270 -41 18
-104 20 -162 5z m-318 -1146 c29 -6 90 -28 136 -49 l82 -39 0 -478 0 -479 -31
-50 c-50 -78 -158 -178 -230 -212 -175 -83 -343 -62 -457 57 -57 59 -92 127
-124 237 -21 72 -23 99 -22 304 0 217 1 228 28 315 15 49 42 116 59 149 62
118 180 212 302 242 64 16 189 17 257 3z"/>
<path d="M3040 3846 c-200 -23 -460 -76 -601 -122 l-47 -15 21 -64 21 -63 124
-4 c109 -3 125 -5 138 -22 12 -17 14 -165 14 -964 0 -719 -3 -955 -12 -986
-24 -79 -111 -142 -246 -176 -35 -9 -42 -15 -37 -28 4 -9 14 -36 22 -59 l15
-43 596 0 c626 0 707 4 868 45 390 99 664 410 766 873 19 84 22 129 22 332 1
265 -10 351 -69 527 -143 428 -440 668 -940 759 -121 22 -499 28 -655 10z
m565 -202 c253 -48 450 -199 577 -442 95 -181 136 -344 145 -582 18 -458 -106
-818 -339 -983 -90 -64 -158 -95 -267 -125 -82 -21 -119 -25 -246 -26 -133 -1
-156 2 -206 22 -115 46 -178 134 -199 278 -6 41 -10 401 -10 904 0 958 -7 884
91 933 92 46 276 54 454 21z"/>
</g>
</svg>
