<?xml version="1.0" standalone="no"?>
<!DOCTYPE svg PUBLIC "-//W3C//DTD SVG 20010904//EN"
 "http://www.w3.org/TR/2001/REC-SVG-20010904/DTD/svg10.dtd">
<svg version="1.0" xmlns="http://www.w3.org/2000/svg"
 width="500.000000pt" height="500.000000pt" viewBox="0 0 500.000000 500.000000"
 preserveAspectRatio="xMidYMid meet">
<metadata>
Created by potrace 1.11, written by Peter Selinger 2001-2013
</metadata>
<g transform="translate(0.000000,500.000000) scale(0.100000,-0.100000)"
fill="#000000" stroke="none">
<path d="M4635 4280 c-62 -49 -129 -75 -248 -96 -78 -14 -210 -17 -892 -21
-725 -4 -802 -6 -818 -21 -44 -39 -42 -49 21 -141 126 -183 172 -316 192 -557
8 -96 10 -445 8 -1134 -3 -922 -5 -999 -21 -1048 -33 -97 -97 -146 -257 -197
-47 -15 -87 -29 -88 -30 -2 -2 7 -35 19 -74 l23 -71 1010 -2 c962 -3 1013 -4
1046 -22 19 -10 49 -34 66 -54 l31 -35 44 24 44 24 0 390 0 389 -75 28 c-41
15 -77 24 -81 20 -3 -4 -15 -44 -27 -89 -55 -212 -117 -317 -213 -363 -94 -44
-183 -52 -564 -48 -340 3 -340 3 -390 28 -62 31 -91 79 -105 176 -5 38 -10
289 -10 567 l0 497 263 0 c144 0 291 -5 327 -10 186 -30 248 -86 299 -271 11
-39 22 -74 25 -76 2 -2 38 8 80 23 l76 27 0 388 0 388 -45 27 c-25 14 -47 25
-49 23 -2 -2 -26 -32 -53 -66 -87 -109 -168 -163 -272 -183 -30 -5 -188 -10
-353 -10 l-299 0 3 518 c4 567 6 582 65 644 51 53 92 58 462 58 354 0 415 -6
500 -49 82 -42 147 -154 197 -337 15 -54 30 -103 34 -107 4 -5 40 1 79 14 l71
23 0 410 0 411 -34 28 c-19 15 -36 27 -38 26 -2 0 -25 -18 -53 -39z"/>
<path d="M1139 3209 c-274 -26 -521 -138 -699 -319 -169 -171 -275 -384 -316
-638 -19 -115 -21 -361 -4 -481 51 -375 237 -669 522 -825 144 -79 306 -116
513 -116 271 0 490 66 690 208 88 62 221 195 227 227 6 32 -13 74 -50 109 -36
33 -74 37 -107 10 -13 -11 -49 -40 -81 -67 -75 -60 -209 -130 -304 -157 -107
-31 -307 -38 -420 -16 -299 61 -462 263 -519 643 -16 105 -14 400 4 518 51
336 195 567 403 645 203 76 416 32 529 -110 111 -140 132 -349 51 -512 -41
-80 -142 -187 -215 -226 -101 -53 -163 -67 -308 -66 -112 0 -142 4 -218 27
-48 15 -92 27 -97 27 -18 0 -50 -64 -50 -99 0 -54 34 -97 103 -131 132 -64
339 -97 506 -80 253 26 398 95 559 264 145 154 208 320 199 526 -13 322 -226
563 -552 625 -99 19 -254 25 -366 14z"/>
</g>
</svg>
