<?xml version="1.0" standalone="no"?>
<!DOCTYPE svg PUBLIC "-//W3C//DTD SVG 20010904//EN"
 "http://www.w3.org/TR/2001/REC-SVG-20010904/DTD/svg10.dtd">
<svg version="1.0" xmlns="http://www.w3.org/2000/svg"
 width="500.000000pt" height="500.000000pt" viewBox="0 0 500.000000 500.000000"
 preserveAspectRatio="xMidYMid meet">
<metadata>
Created by potrace 1.11, written by Peter Selinger 2001-2013
</metadata>
<g transform="translate(0.000000,500.000000) scale(0.100000,-0.100000)"
fill="#000000" stroke="none">
<path d="M1768 4770 c-443 -52 -705 -460 -736 -1147 l-7 -146 -170 -44 c-210
-53 -218 -59 -223 -168 l-4 -75 201 0 202 0 -4 -1262 c-3 -1152 -4 -1269 -20
-1326 -22 -83 -50 -134 -100 -189 -72 -78 -159 -107 -255 -83 -118 28 -183
120 -190 270 -6 124 23 215 95 303 29 36 30 73 1 88 -29 15 -158 6 -223 -16
-302 -104 -383 -497 -146 -706 59 -53 163 -105 249 -125 100 -25 284 -22 397
5 144 35 225 80 330 186 102 102 153 188 204 340 67 204 65 162 69 1398 l3
1117 268 0 c265 0 268 0 289 23 11 12 30 43 41 68 21 47 44 176 35 191 -3 4
-147 8 -320 8 l-314 0 0 248 c0 136 5 288 11 337 38 322 154 489 350 503 92 6
168 -17 226 -71 52 -48 76 -91 92 -165 26 -126 6 -256 -61 -385 -46 -88 -45
-105 11 -121 44 -13 171 8 238 39 158 72 244 216 244 410 0 138 -37 222 -139
316 -105 98 -253 159 -427 179 -100 11 -120 11 -217 0z"/>
<path d="M4651 4264 c-67 -47 -151 -77 -266 -95 -46 -8 -340 -13 -847 -16
l-778 -5 -25 -30 c-15 -17 -24 -37 -21 -44 3 -7 28 -44 56 -82 111 -154 169
-316 189 -533 14 -149 15 -1734 1 -1884 -20 -215 -79 -377 -194 -538 -31 -42
-56 -80 -56 -83 0 -3 12 -21 26 -40 l26 -34 502 0 502 0 22 68 c12 38 22 73
22 79 0 5 -30 18 -67 28 -94 25 -181 65 -226 105 -90 79 -96 125 -97 729 l0
484 263 -6 c280 -6 365 -18 440 -59 76 -42 102 -90 162 -295 3 -8 27 -4 79 15
l76 27 0 393 0 392 -45 22 c-45 22 -45 22 -59 3 -68 -97 -142 -164 -226 -204
l-55 -26 -318 -3 -318 -3 3 538 c4 590 6 603 65 665 50 52 94 58 437 58 339 0
413 -8 491 -54 78 -46 132 -143 186 -333 18 -65 37 -113 44 -113 7 0 41 11 76
24 l64 24 3 402 c2 428 4 413 -47 449 -26 19 -26 19 -90 -25z"/>
</g>
</svg>
