<?xml version="1.0" standalone="no"?>
<!DOCTYPE svg PUBLIC "-//W3C//DTD SVG 20010904//EN"
 "http://www.w3.org/TR/2001/REC-SVG-20010904/DTD/svg10.dtd">
<svg version="1.0" xmlns="http://www.w3.org/2000/svg"
 width="500.000000pt" height="500.000000pt" viewBox="0 0 500.000000 500.000000"
 preserveAspectRatio="xMidYMid meet">
<metadata>
Created by potrace 1.11, written by Peter Selinger 2001-2013
</metadata>
<g transform="translate(0.000000,500.000000) scale(0.100000,-0.100000)"
fill="#000000" stroke="none">
<path d="M3595 4473 c-574 -48 -996 -439 -1094 -1014 -93 -540 38 -1064 343
-1377 177 -183 384 -275 674 -302 283 -26 534 43 746 205 l46 35 0 -228 c0
-125 -5 -276 -10 -337 -29 -303 -119 -478 -287 -558 -66 -31 -72 -32 -198 -32
-122 0 -133 2 -187 28 -118 58 -187 158 -196 282 -9 139 34 261 128 369 57 65
63 91 23 107 -37 15 -168 -2 -243 -30 -115 -43 -215 -152 -255 -276 -26 -80
-26 -229 -1 -300 45 -124 153 -242 278 -305 120 -60 203 -75 403 -74 149 1
182 4 266 26 333 89 517 320 595 743 13 70 18 193 24 550 8 464 12 513 51 635
19 58 58 131 115 212 l54 77 -26 30 -26 31 -397 0 -397 0 -21 -65 -21 -65 41
-11 c135 -36 213 -80 246 -139 28 -50 41 -143 41 -292 l0 -127 -59 -49 c-167
-139 -343 -202 -565 -202 -301 0 -521 155 -672 474 -92 195 -127 374 -128 646
-1 223 18 342 80 522 110 317 284 503 539 574 91 25 322 31 405 9 140 -36 267
-132 318 -242 21 -46 27 -76 30 -148 5 -113 -14 -192 -71 -297 -51 -95 -47
-111 32 -116 145 -9 297 82 366 218 48 95 60 260 26 369 -92 297 -523 485
-1016 444z"/>
<path d="M1120 3630 c-223 -29 -397 -109 -539 -249 -208 -205 -301 -479 -288
-853 8 -266 67 -420 216 -569 134 -134 266 -189 452 -189 249 0 463 120 647
364 l23 31 -4 -410 c-3 -271 -8 -427 -16 -460 -41 -167 -101 -289 -172 -349
-19 -16 -59 -41 -89 -55 -49 -23 -67 -26 -165 -26 -100 0 -115 2 -161 27 -215
113 -232 436 -34 661 41 48 48 61 40 77 -14 26 -66 34 -147 21 -92 -14 -148
-34 -209 -76 -146 -100 -219 -297 -180 -483 21 -100 58 -164 146 -253 118
-119 234 -166 435 -176 258 -13 459 52 621 200 120 110 200 260 245 463 23 98
23 110 28 1059 l6 960 24 45 c13 25 32 58 43 73 19 26 19 29 4 52 -19 28 -11
26 -216 54 -85 12 -213 31 -285 41 -154 24 -334 32 -425 20z m320 -226 c30 -9
85 -32 123 -51 l67 -35 0 -462 0 -461 -37 -55 c-53 -80 -159 -180 -229 -217
-209 -111 -447 -72 -569 95 -75 101 -107 238 -107 457 -1 196 22 312 88 445
80 162 197 259 355 295 79 18 230 13 309 -11z"/>
</g>
</svg>
