<?xml version="1.0" standalone="no"?>
<!DOCTYPE svg PUBLIC "-//W3C//DTD SVG 20010904//EN"
 "http://www.w3.org/TR/2001/REC-SVG-20010904/DTD/svg10.dtd">
<svg version="1.0" xmlns="http://www.w3.org/2000/svg"
 width="500.000000pt" height="500.000000pt" viewBox="0 0 500.000000 500.000000"
 preserveAspectRatio="xMidYMid meet">
<metadata>
Created by potrace 1.11, written by Peter Selinger 2001-2013
</metadata>
<g transform="translate(0.000000,500.000000) scale(0.100000,-0.100000)"
fill="#000000" stroke="none">
<path d="M334 4031 c-78 -21 -225 -92 -291 -140 l-43 -31 0 -70 0 -70 94 0
c91 0 95 -1 116 -27 l21 -26 -3 -1146 -3 -1146 -25 -50 c-27 -54 -73 -85 -158
-105 -48 -12 -51 -22 -26 -87 l17 -43 331 0 332 0 21 29 21 28 -39 56 c-91
128 -123 260 -122 512 0 194 10 293 48 450 60 253 180 441 328 517 52 26 77
32 148 36 161 8 263 -46 311 -166 22 -56 22 -65 28 -647 6 -515 9 -599 24
-663 33 -134 107 -199 240 -209 133 -10 259 45 396 174 l63 59 -34 47 c-19 25
-37 46 -41 47 -4 0 -30 -14 -58 -32 -41 -25 -66 -33 -116 -36 -60 -4 -65 -3
-94 26 l-30 30 0 495 c0 272 -5 551 -10 620 -18 219 -64 352 -152 440 -173
173 -542 147 -773 -55 -113 -99 -171 -172 -239 -298 l-46 -85 0 747 c0 558 -3
754 -12 773 -26 56 -116 75 -224 46z"/>
<path d="M2416 3748 c-10 -29 -20 -58 -23 -64 -2 -6 18 -15 44 -22 142 -32
228 -89 259 -169 18 -45 19 -104 22 -1003 2 -662 0 -975 -8 -1019 -24 -141
-81 -190 -277 -241 l-41 -10 21 -65 21 -65 464 0 463 0 15 37 c32 75 28 82
-62 111 -159 53 -200 101 -215 256 -4 50 -9 263 -9 474 l0 382 621 0 620 0 -3
-452 -3 -453 -27 -57 c-37 -80 -98 -117 -255 -158 l-41 -10 21 -65 21 -65 466
0 467 0 11 39 c24 78 20 85 -60 108 -97 29 -161 71 -190 125 l-23 43 0 940 c0
745 3 953 13 1004 23 107 62 198 129 298 34 52 63 98 63 102 0 4 -10 17 -23
29 -23 22 -26 22 -438 22 l-414 0 -19 -52 c-10 -29 -20 -58 -23 -64 -2 -6 18
-15 44 -22 143 -32 228 -89 259 -169 16 -43 19 -93 22 -481 l3 -432 -618 2
-618 3 2 320 c2 450 22 551 150 743 l64 96 -19 25 -19 26 -419 3 -419 2 -19
-52z"/>
</g>
</svg>
