<?xml version="1.0" standalone="no"?>
<!DOCTYPE svg PUBLIC "-//W3C//DTD SVG 20010904//EN"
 "http://www.w3.org/TR/2001/REC-SVG-20010904/DTD/svg10.dtd">
<svg version="1.0" xmlns="http://www.w3.org/2000/svg"
 width="500.000000pt" height="500.000000pt" viewBox="0 0 500.000000 500.000000"
 preserveAspectRatio="xMidYMid meet">
<metadata>
Created by potrace 1.11, written by Peter Selinger 2001-2013
</metadata>
<g transform="translate(0.000000,500.000000) scale(0.100000,-0.100000)"
fill="#000000" stroke="none">
<path d="M1590 4303 c-50 -24 -145 -124 -175 -184 -51 -100 -30 -183 74 -292
72 -76 139 -111 199 -104 88 10 223 135 258 240 29 86 -1 164 -100 262 -33 34
-77 69 -98 78 -46 22 -113 21 -158 0z"/>
<path d="M2630 4243 c-38 -100 -37 -101 58 -129 163 -47 254 -113 281 -204 27
-91 31 -243 31 -1270 0 -1061 -4 -1185 -35 -1281 -30 -89 -112 -148 -270 -194
-49 -14 -91 -27 -93 -30 -2 -2 7 -37 20 -77 l25 -73 567 0 568 0 24 64 c13 35
24 67 24 71 0 4 -39 20 -87 35 -155 48 -239 109 -263 192 -27 93 -32 287 -27
1252 3 844 6 1000 20 1081 31 183 86 317 192 464 l57 78 -30 37 -29 36 -506 3
-505 2 -22 -57z"/>
<path d="M1614 3326 c-124 -28 -311 -122 -433 -218 l-60 -47 20 -61 21 -60
118 0 c111 0 121 -2 147 -24 l28 -24 5 -834 c5 -755 7 -839 23 -892 53 -178
144 -247 327 -247 164 0 311 73 469 234 l53 55 -41 56 c-23 31 -44 56 -46 56
-2 0 -26 -14 -52 -30 -122 -78 -250 -78 -296 -1 -16 27 -17 102 -17 983 0 887
-1 955 -18 988 -9 19 -30 42 -47 51 -43 25 -129 31 -201 15z"/>
</g>
</svg>
