<?xml version="1.0" standalone="no"?>
<!DOCTYPE svg PUBLIC "-//W3C//DTD SVG 20010904//EN"
 "http://www.w3.org/TR/2001/REC-SVG-20010904/DTD/svg10.dtd">
<svg version="1.0" xmlns="http://www.w3.org/2000/svg"
 width="500.000000pt" height="500.000000pt" viewBox="0 0 500.000000 500.000000"
 preserveAspectRatio="xMidYMid meet">
<metadata>
Created by potrace 1.11, written by Peter Selinger 2001-2013
</metadata>
<g transform="translate(0.000000,500.000000) scale(0.100000,-0.100000)"
fill="#000000" stroke="none">
<path d="M1654 4760 c-48 -10 -97 -45 -154 -107 -132 -145 -128 -254 14 -397
60 -59 126 -96 174 -96 74 0 210 109 261 208 47 91 20 191 -79 293 -79 81
-149 113 -216 99z"/>
<path d="M3240 4683 c-38 -100 -37 -101 58 -129 215 -63 280 -131 302 -320 13
-114 13 -1992 0 -2127 -19 -192 -61 -299 -154 -393 -82 -82 -144 -106 -287
-112 -209 -8 -336 63 -416 234 -26 55 -28 68 -28 189 0 112 3 139 23 194 32
84 79 163 141 234 83 94 67 122 -65 119 -318 -7 -536 -217 -551 -532 -8 -164
31 -282 138 -410 166 -200 450 -293 817 -269 389 26 681 263 783 635 52 191
51 171 59 1129 8 961 10 996 61 1160 29 94 85 204 154 299 l57 78 -30 37 -29
36 -506 3 -505 2 -22 -57z"/>
<path d="M1635 3766 c-144 -33 -323 -127 -479 -250 -18 -14 -18 -16 1 -73 l20
-58 127 -5 c146 -6 159 -13 171 -93 3 -23 5 -618 3 -1322 -4 -1163 -6 -1286
-21 -1343 -33 -122 -90 -206 -171 -252 -88 -51 -218 -39 -295 26 -21 18 -49
57 -62 86 -20 45 -24 69 -24 163 0 99 3 116 27 169 16 32 44 80 63 106 41 55
42 61 15 85 -28 25 -172 17 -253 -15 -67 -25 -147 -87 -194 -149 -79 -103 -97
-305 -38 -427 59 -122 201 -224 361 -260 59 -13 108 -15 222 -12 132 4 156 8
241 37 115 39 191 84 264 156 141 138 229 332 269 595 10 67 13 372 13 1415 0
1235 -1 1332 -17 1361 -32 59 -135 84 -243 60z"/>
</g>
</svg>
