<?xml version="1.0" standalone="no"?>
<!DOCTYPE svg PUBLIC "-//W3C//DTD SVG 20010904//EN"
 "http://www.w3.org/TR/2001/REC-SVG-20010904/DTD/svg10.dtd">
<svg version="1.0" xmlns="http://www.w3.org/2000/svg"
 width="500.000000pt" height="500.000000pt" viewBox="0 0 500.000000 500.000000"
 preserveAspectRatio="xMidYMid meet">
<metadata>
Created by potrace 1.11, written by Peter Selinger 2001-2013
</metadata>
<g transform="translate(0.000000,500.000000) scale(0.100000,-0.100000)"
fill="#000000" stroke="none">
<path d="M670 4304 c-97 -33 -195 -85 -273 -144 -66 -49 -73 -68 -48 -132 l11
-28 103 0 c88 0 106 -3 120 -18 16 -17 17 -113 17 -1178 0 -660 -4 -1176 -10
-1198 -17 -76 -73 -122 -175 -145 l-53 -12 21 -60 22 -59 339 2 339 3 20 27
20 27 -35 48 c-108 148 -143 327 -126 654 21 437 176 768 413 885 77 38 82 39
185 39 101 0 109 -2 155 -30 33 -21 57 -47 79 -85 29 -51 31 -62 31 -155 0
-91 -3 -105 -30 -158 -39 -78 -135 -168 -212 -198 -79 -31 -248 -38 -358 -15
-42 9 -83 16 -90 16 -23 0 -45 -30 -45 -61 0 -45 17 -69 65 -90 42 -19 45 -23
210 -337 234 -445 303 -544 414 -596 38 -18 65 -21 162 -21 114 0 116 0 194
39 57 28 98 58 147 108 37 38 68 74 68 80 0 6 -16 32 -36 58 l-36 48 -50 -38
c-83 -62 -167 -76 -238 -40 -29 15 -49 37 -78 87 -57 100 -292 549 -292 560 0
4 30 14 68 21 242 45 450 259 484 499 24 168 -27 330 -139 442 -180 179 -488
187 -733 21 -124 -84 -237 -219 -307 -366 l-38 -79 -5 772 -5 773 -28 27 c-24
24 -36 28 -100 31 -57 2 -87 -3 -147 -24z"/>
<path d="M2625 4078 c-22 -62 -35 -102 -35 -112 0 -7 30 -20 68 -30 86 -23
177 -71 204 -108 54 -77 52 -47 56 -1068 3 -981 0 -1065 -38 -1139 -32 -64
-107 -111 -229 -142 -29 -7 -55 -18 -57 -24 -3 -6 4 -35 14 -65 l19 -55 473 0
473 0 20 58 c10 32 17 59 16 60 -2 2 -43 15 -90 30 -108 34 -164 73 -192 135
l-22 47 0 940 c0 873 1 946 18 1025 24 111 63 201 129 297 29 42 56 83 61 89
4 7 -4 25 -19 43 l-26 31 -419 0 c-327 0 -421 -3 -424 -12z"/>
<path d="M4116 4058 l-37 -33 37 -84 c52 -119 56 -189 17 -273 -16 -35 -152
-247 -301 -471 l-272 -407 -63 0 c-34 0 -67 -4 -73 -8 -18 -12 -34 -49 -34
-81 0 -25 8 -34 54 -61 105 -59 125 -88 390 -574 285 -521 307 -557 396 -646
100 -101 198 -140 351 -140 124 0 226 39 322 125 l29 25 -32 53 c-18 28 -33
53 -34 54 -1 1 -24 -9 -51 -22 -32 -17 -65 -25 -98 -25 -46 0 -54 3 -91 43
-26 28 -138 216 -306 516 -228 408 -274 483 -331 544 -37 40 -90 86 -118 102
-28 17 -50 35 -48 41 6 29 699 1017 747 1065 62 62 144 107 246 134 38 10 70
19 72 21 2 1 -7 32 -20 68 l-23 66 -346 0 -346 0 -37 -32z"/>
</g>
</svg>
