<?xml version="1.0" standalone="no"?>
<!DOCTYPE svg PUBLIC "-//W3C//DTD SVG 20010904//EN"
 "http://www.w3.org/TR/2001/REC-SVG-20010904/DTD/svg10.dtd">
<svg version="1.0" xmlns="http://www.w3.org/2000/svg"
 width="500.000000pt" height="500.000000pt" viewBox="0 0 500.000000 500.000000"
 preserveAspectRatio="xMidYMid meet">
<metadata>
Created by potrace 1.11, written by Peter Selinger 2001-2013
</metadata>
<g transform="translate(0.000000,500.000000) scale(0.100000,-0.100000)"
fill="#000000" stroke="none">
<path d="M1212 4694 c-85 -23 -200 -71 -287 -121 -107 -61 -225 -151 -224
-172 0 -9 8 -38 18 -66 l18 -50 136 -5 c125 -5 138 -7 159 -28 l23 -23 5
-1577 c5 -1446 7 -1582 23 -1640 44 -163 119 -242 255 -271 196 -41 384 31
595 229 37 34 67 67 67 72 0 9 -56 92 -81 122 -4 4 -34 -8 -67 -28 -137 -85
-255 -86 -316 -3 l-21 28 -1 1702 c0 936 -4 1719 -7 1739 -18 91 -149 132
-295 92z"/>
<path d="M2335 4378 c-2 -7 -16 -44 -29 -83 -14 -38 -24 -71 -22 -72 2 -2 43
-15 92 -29 182 -52 275 -120 311 -226 17 -50 18 -127 21 -1353 3 -1351 2
-1376 -38 -1456 -38 -74 -135 -134 -284 -175 -37 -10 -70 -24 -72 -29 -3 -6 6
-42 19 -80 l24 -70 1054 -5 1054 -5 47 -23 c28 -14 56 -38 68 -58 12 -19 26
-34 32 -34 6 0 31 11 55 25 l43 26 0 427 0 427 -81 29 c-45 16 -84 25 -88 20
-5 -5 -14 -31 -20 -59 -35 -149 -99 -304 -151 -367 -37 -45 -115 -86 -197
-103 -104 -22 -728 -21 -803 1 -71 21 -113 64 -137 140 -17 56 -18 123 -18
1214 0 1215 1 1231 46 1407 26 104 93 238 174 351 l66 92 -32 40 -32 40 -549
0 c-430 0 -550 -3 -553 -12z"/>
</g>
</svg>
