<?xml version="1.0" standalone="no"?>
<!DOCTYPE svg PUBLIC "-//W3C//DTD SVG 20010904//EN"
 "http://www.w3.org/TR/2001/REC-SVG-20010904/DTD/svg10.dtd">
<svg version="1.0" xmlns="http://www.w3.org/2000/svg"
 width="500.000000pt" height="284.000000pt" viewBox="0 0 500.000000 284.000000"
 preserveAspectRatio="xMidYMid meet">
<metadata>
Created by potrace 1.11, written by Peter Selinger 2001-2013
</metadata>
<g transform="translate(0.000000,284.000000) scale(0.100000,-0.100000)"
fill="#000000" stroke="none">
<path d="M0 1420 l0 -1420 2500 0 2500 0 0 1420 0 1420 -2500 0 -2500 0 0
-1420z m3357 1030 c28 -7 71 -33 125 -76 81 -64 84 -68 105 -137 30 -99 28
-116 -15 -183 -59 -89 -71 -98 -124 -84 -96 25 -118 42 -118 94 0 37 19 42 31
7 11 -32 39 -47 64 -34 8 5 29 31 46 58 38 60 36 111 -7 156 -29 30 -99 69
-125 69 -19 0 -69 -81 -69 -111 0 -13 -11 -48 -25 -77 -30 -64 -31 -88 -7
-167 19 -61 18 -66 -13 -165 -3 -11 9 -35 35 -66 39 -48 46 -67 34 -98 -8 -21
-61 -21 -134 0 -33 9 -123 18 -225 22 -140 6 -176 10 -198 25 -65 43 -57 99
23 159 36 27 46 41 48 68 4 61 10 74 61 134 37 43 57 80 76 136 27 82 57 118
148 179 56 38 185 100 207 100 8 0 34 -4 57 -9z m-791 -732 l90 -31 0 -41 c-1
-62 17 -68 204 -63 138 4 165 2 253 -19 133 -32 181 -32 204 2 16 25 19 26 82
19 125 -12 176 -39 169 -86 -4 -34 -43 -49 -123 -49 -83 0 -167 12 -289 41
-85 21 -96 21 -265 10 -230 -16 -304 -7 -420 51 -93 46 -151 95 -151 125 0 28
36 71 63 76 36 8 87 -2 183 -35z m1217 -268 c64 -71 2 -186 -91 -165 -43 9
-67 38 -52 64 12 23 21 25 67 12 28 -8 33 -7 38 10 8 25 -11 49 -37 49 -40 0
-90 -33 -105 -68 -14 -34 -14 -34 25 -71 59 -54 85 -113 86 -191 1 -48 -4 -74
-19 -100 -46 -77 -191 -127 -292 -101 -89 23 -99 23 -116 6 -10 -9 -17 -27
-17 -40 0 -23 0 -23 163 -27 150 -3 166 -5 219 -30 94 -44 136 -134 109 -235
-16 -59 -52 -97 -127 -134 -56 -28 -78 -33 -165 -37 -120 -6 -188 7 -253 48
-60 38 -86 82 -86 142 0 41 5 54 36 88 l36 39 -21 27 c-25 32 -28 92 -6 134 8
15 31 38 52 51 21 12 40 24 42 25 2 2 -8 17 -22 34 -68 81 -51 184 47 282 62
62 103 80 178 77 51 -2 62 0 71 17 26 48 74 98 111 116 52 24 93 17 129 -22z
m-2818 -69 c107 -49 128 -117 129 -401 1 -199 2 -205 21 -202 19 3 46 28 65
61 16 29 31 0 20 -40 -29 -106 -164 -115 -206 -13 l-15 35 -26 -31 c-40 -48
-92 -70 -165 -70 -105 1 -171 43 -199 127 -15 47 -7 123 17 157 40 55 187 106
308 106 l39 0 -6 68 c-12 130 -31 152 -125 152 -81 0 -146 -57 -140 -122 2
-28 7 -33 28 -33 23 0 25 3 22 42 -2 32 1 44 15 51 24 13 58 -1 78 -32 14 -21
15 -29 3 -53 -18 -38 -74 -73 -115 -73 -47 0 -93 46 -93 92 1 48 33 111 71
139 80 56 200 74 274 40z m1684 0 c78 -40 133 -149 135 -268 1 -39 -3 -75 -7
-80 -5 -4 -81 -8 -169 -8 l-159 0 6 -60 c14 -130 34 -165 102 -184 93 -26 190
51 169 134 -4 16 -13 25 -26 25 -22 0 -35 -16 -20 -25 14 -9 13 -48 -2 -63
-29 -29 -88 1 -88 45 0 55 48 93 119 93 32 0 44 -6 65 -31 46 -55 26 -125 -54
-189 -56 -44 -101 -60 -172 -60 -110 0 -185 57 -245 185 -25 54 -28 70 -28
170 0 92 4 118 22 157 35 76 71 115 136 148 74 37 156 41 216 11z m-901 -47
l53 -35 32 27 c46 39 89 54 152 54 64 0 105 -18 133 -57 37 -55 44 -95 51
-305 4 -126 11 -212 18 -219 5 -5 32 -13 59 -17 46 -7 49 -9 49 -37 l0 -30
-160 -2 c-88 -1 -171 -2 -184 -2 -14 -1 -28 4 -32 11 -13 20 2 38 43 48 52 14
64 44 79 191 12 124 6 243 -16 296 -19 45 -68 66 -119 52 -28 -8 -41 -20 -58
-52 -20 -38 -23 -60 -26 -230 -2 -103 -1 -198 2 -211 3 -13 22 -33 41 -45 70
-41 31 -93 -54 -71 -25 7 -83 12 -127 11 -68 -2 -82 1 -88 14 -9 24 1 35 32
35 51 0 52 3 60 221 5 112 4 218 0 236 -18 67 -108 109 -169 78 -85 -45 -124
-294 -73 -474 15 -52 16 -53 47 -49 47 8 57 0 57 -38 0 -52 -32 -60 -142 -38
-85 17 -87 17 -138 -4 -61 -25 -90 -28 -90 -8 0 29 13 46 59 76 l48 30 6 113
c8 138 7 294 -2 327 -5 18 -18 28 -46 36 -43 12 -62 33 -52 58 6 15 15 16 63
10 49 -6 63 -3 115 21 49 24 61 26 74 15 11 -9 14 -22 9 -43 l-6 -30 46 38
c78 64 157 63 254 -1z m2447 30 c86 -44 107 -123 109 -396 1 -196 7 -218 49
-176 13 13 29 33 35 43 8 15 14 17 22 8 16 -15 -3 -73 -34 -102 -53 -50 -142
-27 -172 45 l-15 35 -26 -32 c-76 -90 -262 -92 -331 -5 -55 70 -56 176 -2 231
54 56 175 95 294 95 l39 0 -7 71 c-9 103 -26 135 -75 149 -54 14 -110 -1 -150
-41 -52 -51 -53 -110 -2 -117 24 -4 26 1 10 30 -22 41 9 86 51 73 29 -9 52
-68 40 -100 -21 -56 -153 -74 -192 -25 -51 64 17 183 130 226 55 20 177 14
227 -12z m-1107 -12 c2 -12 -4 -46 -14 -74 -14 -45 -16 -78 -10 -262 4 -116 9
-219 12 -228 4 -13 13 -15 38 -11 28 4 34 2 39 -18 3 -12 4 -26 1 -31 -3 -4
-55 -8 -117 -7 -77 0 -129 -5 -166 -16 -39 -12 -56 -14 -65 -5 -17 17 5 43 50
58 21 7 44 20 51 28 20 27 26 135 14 265 -19 214 -20 219 -50 230 -33 13 -62
39 -55 50 3 5 35 9 72 10 41 0 84 7 112 19 58 24 84 21 88 -8z"/>
<path d="M3450 1277 c-41 -20 -63 -72 -68 -156 -3 -54 0 -87 11 -113 32 -76
112 -91 155 -28 21 31 23 43 20 115 -6 124 -62 210 -118 182z"/>
<path d="M3390 701 c-88 -29 -140 -81 -147 -145 -6 -51 8 -76 59 -102 67 -35
238 -25 307 17 60 36 78 133 34 181 -10 11 -31 27 -47 35 -33 17 -169 27 -206
14z"/>
<path d="M820 1032 c-84 -42 -108 -200 -35 -234 36 -16 93 3 138 47 40 39 44
61 31 159 l-7 46 -46 0 c-25 0 -62 -8 -81 -18z"/>
<path d="M2512 1329 c-43 -13 -61 -54 -69 -160 l-6 -79 97 0 96 0 0 78 c0 101
-14 150 -46 162 -29 11 -28 11 -72 -1z"/>
<path d="M4030 1031 c-19 -10 -43 -30 -54 -44 -23 -31 -32 -111 -17 -150 24
-62 106 -58 174 8 40 39 44 61 31 159 l-7 46 -46 0 c-26 0 -61 -8 -81 -19z"/>
</g>
</svg>
