<?xml version="1.0" standalone="no"?>
<!DOCTYPE svg PUBLIC "-//W3C//DTD SVG 20010904//EN"
 "http://www.w3.org/TR/2001/REC-SVG-20010904/DTD/svg10.dtd">
<svg version="1.0" xmlns="http://www.w3.org/2000/svg"
 width="500.000000pt" height="500.000000pt" viewBox="0 0 500.000000 500.000000"
 preserveAspectRatio="xMidYMid meet">
<metadata>
Created by potrace 1.11, written by Peter Selinger 2001-2013
</metadata>
<g transform="translate(0.000000,500.000000) scale(0.100000,-0.100000)"
fill="#000000" stroke="none">
<path d="M2711 3558 c-25 -67 -27 -64 45 -83 138 -37 165 -95 145 -317 -6 -73
-27 -367 -46 -653 -19 -286 -40 -544 -46 -573 -17 -85 -62 -126 -179 -163 -59
-18 -62 -26 -41 -82 l11 -27 253 0 c233 0 255 1 270 18 22 24 22 23 -17 84
-97 154 -102 234 -52 912 19 263 37 480 39 482 2 3 128 -289 280 -648 l276
-653 73 -3 73 -2 275 651 c151 358 278 653 283 656 4 2 7 -10 7 -27 0 -17 18
-291 40 -608 23 -317 38 -594 34 -615 -3 -21 -18 -52 -32 -69 -26 -31 -112
-78 -144 -78 -26 0 -30 -16 -17 -60 l12 -40 297 0 298 0 15 23 c14 21 12 25
-25 66 -45 52 -90 142 -112 226 -23 91 -33 193 -67 660 -44 609 -38 693 57
848 35 56 35 59 18 78 -16 18 -32 19 -213 19 l-196 0 -280 -665 c-153 -366
-282 -665 -285 -665 -3 0 -127 298 -276 663 l-272 662 -246 3 -246 2 -9 -22z"/>
<path d="M960 3020 c-25 -5 -77 -25 -116 -45 -89 -44 -202 -158 -256 -260
l-37 -70 -1 148 0 149 -31 30 c-28 29 -34 30 -87 26 -31 -3 -86 -18 -122 -33
-67 -28 -200 -111 -200 -124 0 -5 5 -22 11 -40 11 -30 12 -31 76 -31 113 0
103 45 103 -460 0 -371 -2 -446 -15 -478 -17 -42 -51 -67 -107 -77 -41 -8 -44
-15 -27 -64 l11 -31 239 0 c229 0 239 1 249 20 9 17 5 31 -24 78 -54 86 -76
189 -76 346 0 330 96 586 253 676 134 77 272 33 311 -100 14 -46 16 -123 16
-537 l0 -483 168 0 c157 0 168 1 180 20 11 18 8 27 -19 67 -62 89 -72 132 -77
310 -2 92 1 199 8 249 22 167 92 337 173 422 65 68 175 104 254 83 55 -15 87
-42 115 -99 23 -47 23 -52 29 -487 5 -459 7 -474 51 -538 31 -43 74 -61 153
-61 88 -1 159 31 245 111 l60 55 -26 34 -26 34 -42 -25 c-55 -32 -125 -34
-152 -4 -18 20 -19 47 -25 463 -6 467 -8 486 -57 582 -92 180 -349 201 -555
46 -60 -45 -146 -153 -184 -230 l-28 -57 -7 60 c-21 162 -95 275 -206 313 -49
17 -150 22 -202 12z"/>
</g>
</svg>
