<?xml version="1.0" standalone="no"?>
<!DOCTYPE svg PUBLIC "-//W3C//DTD SVG 20010904//EN"
 "http://www.w3.org/TR/2001/REC-SVG-20010904/DTD/svg10.dtd">
<svg version="1.0" xmlns="http://www.w3.org/2000/svg"
 width="500.000000pt" height="500.000000pt" viewBox="0 0 500.000000 500.000000"
 preserveAspectRatio="xMidYMid meet">
<metadata>
Created by potrace 1.11, written by Peter Selinger 2001-2013
</metadata>
<g transform="translate(0.000000,500.000000) scale(0.100000,-0.100000)"
fill="#000000" stroke="none">
<path d="M2487 3897 c-9 -30 -17 -58 -17 -64 0 -5 36 -20 80 -32 149 -43 200
-96 220 -228 16 -102 9 -1856 -8 -1904 -22 -67 -55 -103 -122 -136 -36 -18
-89 -38 -117 -44 -29 -7 -53 -17 -53 -22 0 -6 8 -34 17 -64 l17 -53 347 0 348
0 21 30 21 29 -56 80 c-62 88 -97 161 -119 248 -31 120 -37 280 -34 970 l3
682 686 -1017 686 -1017 188 0 188 0 20 26 19 27 -32 46 c-64 94 -61 39 -58
1077 3 938 3 945 25 1022 30 106 54 156 120 254 l56 84 -20 27 -20 27 -346 3
-345 2 -21 -55 c-12 -31 -21 -59 -21 -64 0 -4 24 -13 53 -20 68 -15 166 -62
194 -92 12 -13 30 -42 40 -64 17 -37 18 -97 21 -894 1 -470 0 -852 -4 -849 -3
4 -313 462 -688 1020 l-683 1013 -295 3 -294 2 -17 -53z"/>
<path d="M1325 3186 c-224 -43 -423 -203 -545 -440 l-40 -77 0 203 c0 142 -4
211 -13 228 -16 33 -72 60 -123 60 -84 0 -252 -67 -374 -150 -81 -55 -85 -61
-70 -115 l13 -45 94 0 c86 0 96 -2 118 -25 l25 -24 0 -552 c0 -370 -4 -574
-11 -618 -15 -85 -50 -122 -135 -146 -32 -9 -65 -18 -72 -20 -9 -3 -7 -17 8
-57 11 -29 20 -54 20 -55 0 -2 143 -3 318 -3 l318 0 21 28 21 28 -30 40 c-45
59 -77 127 -100 212 -19 67 -22 105 -22 287 0 127 4 242 12 290 57 352 204
597 394 661 65 21 207 16 258 -10 68 -35 116 -92 143 -170 7 -20 13 -239 17
-596 6 -487 9 -573 24 -625 22 -78 61 -134 116 -165 39 -22 57 -25 140 -25 86
0 101 3 163 32 71 34 160 98 215 155 l32 34 -26 35 c-14 18 -29 40 -33 47 -6
10 -19 6 -59 -19 -85 -52 -186 -53 -219 -2 -16 25 -19 76 -24 598 -5 485 -9
580 -23 640 -57 239 -183 354 -403 369 -47 3 -106 0 -148 -8z"/>
</g>
</svg>
