<?xml version="1.0" standalone="no"?>
<!DOCTYPE svg PUBLIC "-//W3C//DTD SVG 20010904//EN"
 "http://www.w3.org/TR/2001/REC-SVG-20010904/DTD/svg10.dtd">
<svg version="1.0" xmlns="http://www.w3.org/2000/svg"
 width="500.000000pt" height="500.000000pt" viewBox="0 0 500.000000 500.000000"
 preserveAspectRatio="xMidYMid meet">
<metadata>
Created by potrace 1.11, written by Peter Selinger 2001-2013
</metadata>
<g transform="translate(0.000000,500.000000) scale(0.100000,-0.100000)"
fill="#000000" stroke="none">
<path d="M3415 3875 c-358 -58 -617 -250 -783 -580 -222 -444 -210 -1099 30
-1510 166 -285 394 -448 714 -512 112 -22 403 -24 514 -4 356 64 611 255 775
581 59 118 91 211 122 358 24 116 27 147 27 352 1 256 -12 350 -71 534 -134
418 -414 683 -813 771 -106 23 -397 29 -515 10z m435 -210 c144 -44 284 -149
369 -280 55 -84 120 -242 155 -377 45 -173 59 -310 53 -533 -4 -182 -7 -211
-35 -317 -71 -274 -231 -510 -414 -611 -111 -62 -194 -82 -343 -82 -219 0
-336 46 -476 185 -156 156 -245 355 -285 637 -22 164 -15 455 15 606 75 371
267 650 514 748 126 50 324 61 447 24z"/>
<path d="M1217 3100 c-387 -43 -641 -283 -729 -685 -17 -80 -17 -390 0 -470
77 -353 282 -582 597 -667 117 -31 384 -31 500 1 228 62 410 210 510 416 152
313 132 776 -47 1053 -45 69 -148 174 -219 221 -157 105 -393 155 -612 131z
m297 -219 c122 -60 204 -178 260 -373 37 -130 49 -241 43 -412 -6 -176 -19
-233 -83 -364 -99 -202 -260 -305 -449 -288 -196 17 -344 169 -412 424 -25 89
-27 114 -27 297 -1 175 2 211 22 288 59 233 183 393 348 448 90 30 214 22 298
-20z"/>
</g>
</svg>
