<?xml version="1.0" standalone="no"?>
<!DOCTYPE svg PUBLIC "-//W3C//DTD SVG 20010904//EN"
 "http://www.w3.org/TR/2001/REC-SVG-20010904/DTD/svg10.dtd">
<svg version="1.0" xmlns="http://www.w3.org/2000/svg"
 width="500.000000pt" height="500.000000pt" viewBox="0 0 500.000000 500.000000"
 preserveAspectRatio="xMidYMid meet">
<metadata>
Created by potrace 1.11, written by Peter Selinger 2001-2013
</metadata>
<g transform="translate(0.000000,500.000000) scale(0.100000,-0.100000)"
fill="#000000" stroke="none">
<path d="M3357 4239 c-124 -12 -263 -35 -397 -65 -122 -27 -299 -80 -314 -94
-4 -5 2 -38 14 -74 l22 -66 114 0 c129 0 180 -14 189 -52 3 -13 4 -493 3
-1068 -3 -818 -6 -1053 -16 -1083 -28 -81 -107 -140 -233 -172 -35 -9 -68 -20
-73 -25 -5 -5 1 -34 14 -69 l22 -61 427 1 426 0 24 30 24 30 -20 27 c-101 138
-141 216 -176 346 -21 80 -21 94 -24 1071 -3 983 -3 990 17 1023 14 22 40 42
78 60 48 22 74 27 172 30 237 8 407 -64 527 -222 111 -148 159 -315 150 -531
-3 -71 -13 -159 -22 -195 -58 -225 -215 -388 -421 -436 -67 -15 -100 -15 -354
-1 -40 2 -46 -1 -58 -26 -31 -63 11 -132 96 -162 191 -65 529 -30 732 75 244
128 402 384 428 695 27 318 -58 560 -265 755 -142 134 -291 203 -538 246 -99
18 -449 26 -568 13z"/>
<path d="M1375 3376 c-141 -28 -256 -82 -376 -178 l-59 -48 0 33 c-1 54 -17
108 -41 133 -19 20 -32 24 -82 24 -121 0 -384 -71 -470 -126 l-38 -25 3 -66 3
-67 108 -22 c60 -13 116 -29 124 -36 43 -36 43 -27 43 -1082 0 -654 -4 -1032
-11 -1083 -21 -156 -62 -269 -130 -354 l-31 -39 22 -30 22 -30 340 2 340 3 20
53 c11 29 18 55 15 58 -2 2 -31 11 -63 20 -86 22 -116 43 -144 99 l-25 50 -3
1159 c-2 1098 -1 1159 15 1172 10 7 53 32 95 54 196 103 424 107 571 10 98
-65 188 -194 238 -337 67 -195 65 -526 -5 -730 -62 -181 -172 -325 -294 -385
-59 -29 -77 -33 -169 -36 -99 -4 -171 9 -287 54 -28 11 -56 -32 -56 -85 0 -43
4 -53 33 -77 80 -68 214 -104 387 -104 177 0 300 38 434 134 159 113 307 333
369 546 65 225 63 560 -5 770 -88 273 -281 471 -533 550 -90 28 -261 35 -360
16z"/>
</g>
</svg>
