<?xml version="1.0" standalone="no"?>
<!DOCTYPE svg PUBLIC "-//W3C//DTD SVG 20010904//EN"
 "http://www.w3.org/TR/2001/REC-SVG-20010904/DTD/svg10.dtd">
<svg version="1.0" xmlns="http://www.w3.org/2000/svg"
 width="500.000000pt" height="500.000000pt" viewBox="0 0 500.000000 500.000000"
 preserveAspectRatio="xMidYMid meet">
<metadata>
Created by potrace 1.11, written by Peter Selinger 2001-2013
</metadata>
<g transform="translate(0.000000,500.000000) scale(0.100000,-0.100000)"
fill="#000000" stroke="none">
<path d="M3235 4380 c-415 -47 -708 -251 -896 -623 -222 -438 -225 -1087 -8
-1519 217 -432 564 -638 1075 -638 138 0 277 18 388 49 l68 19 23 -52 c100
-224 190 -405 238 -479 142 -218 323 -328 522 -315 174 11 325 150 325 299 0
45 -20 52 -86 27 -45 -16 -83 -22 -159 -22 -88 -1 -107 2 -157 26 -67 31 -135
92 -178 157 -17 27 -78 153 -135 281 l-106 233 23 15 c54 35 190 185 242 265
286 438 318 1156 74 1642 -177 351 -445 555 -813 620 -111 19 -333 27 -440 15z
m365 -226 c199 -47 372 -193 470 -399 191 -401 225 -917 88 -1320 -36 -104
-145 -306 -165 -305 -5 0 -28 30 -52 65 -172 257 -424 405 -683 405 -285 -1
-466 -158 -468 -405 -1 -47 -2 -49 -16 -30 -31 39 -96 179 -123 264 -55 167
-66 260 -65 541 0 226 3 267 23 360 81 376 258 654 492 769 46 23 113 48 149
55 89 19 269 19 350 0z m-229 -1816 c134 -67 227 -159 325 -325 30 -50 54 -94
54 -98 0 -13 -127 -63 -204 -80 -60 -13 -105 -16 -185 -12 -195 10 -334 83
-387 205 -24 53 -23 177 0 222 49 95 119 131 247 127 64 -2 86 -7 150 -39z"/>
<path d="M830 3550 c-406 -51 -687 -308 -793 -728 -19 -76 -22 -114 -22 -297
0 -162 5 -230 18 -298 41 -204 118 -351 246 -469 118 -109 242 -158 402 -158
238 0 459 126 637 364 l23 31 -3 -500 c-3 -486 -4 -501 -24 -546 -26 -56 -65
-87 -167 -133 l-77 -35 0 -66 0 -65 344 0 345 0 24 31 25 32 -32 51 c-41 66
-54 95 -73 175 -15 59 -17 190 -20 1174 -3 728 0 1120 6 1145 6 20 27 64 47
97 54 91 37 105 -156 129 -69 9 -199 28 -290 41 -192 29 -354 38 -460 25z
m333 -229 c32 -11 84 -34 117 -52 l60 -32 0 -507 0 -507 -49 -69 c-95 -136
-221 -228 -348 -254 -91 -19 -208 -9 -272 24 -189 97 -286 360 -267 726 20
383 168 620 429 686 76 20 256 11 330 -15z"/>
</g>
</svg>
