<?xml version="1.0" standalone="no"?>
<!DOCTYPE svg PUBLIC "-//W3C//DTD SVG 20010904//EN"
 "http://www.w3.org/TR/2001/REC-SVG-20010904/DTD/svg10.dtd">
<svg version="1.0" xmlns="http://www.w3.org/2000/svg"
 width="500.000000pt" height="500.000000pt" viewBox="0 0 500.000000 500.000000"
 preserveAspectRatio="xMidYMid meet">
<metadata>
Created by potrace 1.11, written by Peter Selinger 2001-2013
</metadata>
<g transform="translate(0.000000,500.000000) scale(0.100000,-0.100000)"
fill="#000000" stroke="none">
<path d="M3030 4166 c-219 -26 -460 -76 -635 -133 -44 -14 -83 -27 -87 -29 -3
-3 5 -38 19 -79 l25 -75 133 0 c127 0 135 -1 162 -24 l28 -24 3 -1064 c2 -711
-1 -1086 -8 -1133 -24 -161 -88 -218 -307 -275 l-42 -10 19 -53 c10 -28 21
-60 25 -69 7 -17 38 -18 454 -18 l448 0 20 22 c35 40 35 46 -7 103 -53 72
-115 186 -140 261 -49 140 -50 172 -50 1245 l0 1006 23 33 c45 67 140 100 294
100 323 0 550 -152 650 -435 26 -75 28 -90 27 -240 0 -147 -2 -167 -27 -240
-51 -152 -147 -264 -281 -330 -141 -69 -301 -90 -461 -60 -96 18 -96 18 -117
-2 -39 -40 -21 -134 33 -165 7 -4 54 -25 103 -45 136 -56 152 -76 281 -348
309 -656 352 -733 469 -843 74 -69 138 -97 256 -114 138 -20 297 28 400 119
l45 40 -20 36 c-10 19 -26 45 -35 57 l-17 22 -43 -22 c-23 -12 -67 -24 -96
-27 -47 -5 -59 -2 -95 21 -38 25 -55 58 -269 490 -211 427 -234 469 -288 526
-33 34 -54 63 -48 65 146 44 221 77 302 133 349 237 451 775 219 1148 -140
225 -374 362 -715 420 -129 22 -497 27 -650 10z"/>
<path d="M1745 3257 c-69 -23 -108 -48 -174 -111 -107 -102 -178 -224 -236
-403 -15 -46 -31 -83 -36 -83 -5 0 -9 95 -10 228 0 149 -4 239 -12 261 -36
102 -180 106 -393 10 -75 -33 -218 -124 -248 -158 -18 -20 -18 -24 -5 -69 l15
-47 113 -5 c103 -5 114 -7 132 -29 18 -22 19 -48 19 -672 0 -430 -4 -665 -11
-699 -18 -85 -74 -133 -186 -160 -29 -6 -53 -17 -52 -23 0 -7 8 -34 18 -62
l18 -50 358 -3 c321 -2 360 -1 376 14 33 30 32 50 -6 102 -44 63 -87 157 -111
247 -27 98 -27 542 -1 718 38 256 110 445 222 580 119 144 262 169 321 55 40
-76 17 -184 -67 -321 -17 -27 -28 -56 -25 -63 11 -27 57 -36 133 -26 142 19
255 98 309 215 26 56 29 72 29 172 0 98 -3 116 -27 167 -37 79 -108 152 -184
189 -53 26 -78 32 -151 35 -56 3 -102 -1 -128 -9z"/>
</g>
</svg>
