<?xml version="1.0" standalone="no"?>
<!DOCTYPE svg PUBLIC "-//W3C//DTD SVG 20010904//EN"
 "http://www.w3.org/TR/2001/REC-SVG-20010904/DTD/svg10.dtd">
<svg version="1.0" xmlns="http://www.w3.org/2000/svg"
 width="500.000000pt" height="500.000000pt" viewBox="0 0 500.000000 500.000000"
 preserveAspectRatio="xMidYMid meet">
<metadata>
Created by potrace 1.11, written by Peter Selinger 2001-2013
</metadata>
<g transform="translate(0.000000,500.000000) scale(0.100000,-0.100000)"
fill="#000000" stroke="none">
<path d="M3298 4250 c-185 -29 -346 -103 -462 -211 -187 -175 -268 -359 -269
-614 0 -148 15 -226 69 -343 94 -205 248 -340 564 -494 640 -312 694 -343 785
-456 113 -142 161 -339 120 -497 -43 -162 -169 -280 -356 -331 -89 -24 -300
-25 -389 -1 -95 25 -202 81 -264 138 -196 179 -208 433 -34 722 l23 38 -24 19
c-46 39 -209 20 -313 -37 -162 -88 -250 -246 -250 -448 0 -120 23 -202 80
-291 175 -269 575 -421 1057 -401 279 12 455 67 622 193 172 132 273 322 293
557 22 264 -53 494 -218 669 -122 129 -279 221 -823 480 -204 98 -286 147
-357 213 -124 114 -173 225 -174 385 0 70 5 109 20 151 75 209 258 328 505
329 236 0 431 -103 511 -270 63 -134 43 -343 -48 -500 -23 -41 -41 -82 -39
-91 15 -54 171 -50 288 8 152 76 244 222 260 415 27 310 -218 557 -642 649
-110 23 -433 35 -535 19z"/>
<path d="M1060 3281 c-219 -48 -401 -168 -484 -322 -38 -69 -57 -153 -57 -256
-2 -302 172 -474 701 -698 198 -84 267 -123 341 -193 84 -79 113 -138 113
-237 0 -59 -4 -79 -29 -123 -74 -136 -234 -214 -407 -198 -159 14 -295 100
-350 221 -31 69 -31 219 0 315 27 82 27 96 0 112 -38 21 -166 15 -220 -9 -57
-26 -143 -104 -168 -153 -32 -63 -44 -152 -31 -233 49 -303 362 -480 821 -464
317 12 561 127 696 332 93 140 110 352 40 509 -69 154 -223 266 -571 412 -375
159 -473 226 -536 368 -85 193 43 398 265 424 202 25 387 -63 426 -202 20 -71
9 -198 -24 -276 -15 -36 -24 -75 -21 -87 13 -53 144 -54 251 -2 73 34 126 90
163 168 23 50 26 68 26 171 0 107 -2 118 -27 161 -64 108 -216 206 -388 250
-124 31 -410 37 -530 10z"/>
</g>
</svg>
