<?xml version="1.0" standalone="no"?>
<!DOCTYPE svg PUBLIC "-//W3C//DTD SVG 20010904//EN"
 "http://www.w3.org/TR/2001/REC-SVG-20010904/DTD/svg10.dtd">
<svg version="1.0" xmlns="http://www.w3.org/2000/svg"
 width="500.000000pt" height="500.000000pt" viewBox="0 0 500.000000 500.000000"
 preserveAspectRatio="xMidYMid meet">
<metadata>
Created by potrace 1.11, written by Peter Selinger 2001-2013
</metadata>
<g transform="translate(0.000000,500.000000) scale(0.100000,-0.100000)"
fill="#000000" stroke="none">
<path d="M2008 4569 l-38 -31 0 -444 c0 -244 2 -444 4 -444 3 0 40 -13 83 -29
l79 -29 36 127 c63 223 129 331 229 378 82 38 153 47 379 48 189 0 219 -2 243
-18 38 -25 54 -62 67 -158 16 -124 8 -2337 -9 -2438 -32 -186 -96 -342 -202
-488 -32 -45 -59 -86 -59 -93 0 -6 12 -27 28 -46 l27 -34 545 0 546 0 27 82
c14 45 25 83 24 85 -2 1 -43 14 -91 28 -157 46 -249 101 -285 173 -47 94 -46
68 -46 1447 0 1213 1 1304 18 1357 12 41 26 63 50 80 30 21 44 23 191 26 257
6 415 -22 494 -86 70 -56 128 -183 194 -424 l13 -46 83 30 82 30 0 443 0 443
-39 31 -38 30 -64 -44 c-74 -53 -139 -79 -252 -101 -70 -14 -195 -17 -877 -21
-836 -5 -1013 1 -1155 37 -85 22 -120 38 -192 92 -29 21 -53 38 -55 38 -2 -1
-20 -14 -40 -31z"/>
<path d="M1031 4000 c-74 -5 -86 -9 -106 -32 -12 -15 -28 -50 -35 -80 -27
-119 -64 -228 -108 -313 -80 -157 -188 -242 -385 -305 -134 -44 -146 -56 -158
-154 -4 -44 -6 -83 -3 -87 3 -5 102 -9 219 -9 l214 0 3 -937 3 -938 22 -66
c59 -173 204 -279 381 -279 204 0 460 130 618 315 l46 55 -38 55 c-21 31 -43
60 -49 65 -6 5 -32 -8 -70 -37 -124 -93 -215 -123 -312 -103 -67 14 -114 54
-134 115 -10 32 -14 222 -17 897 l-3 858 273 2 272 3 33 43 c39 51 62 124 65
207 l3 60 -322 3 -323 2 -2 333 -3 332 -84 -5z"/>
</g>
</svg>
