<?xml version="1.0" standalone="no"?>
<!DOCTYPE svg PUBLIC "-//W3C//DTD SVG 20010904//EN"
 "http://www.w3.org/TR/2001/REC-SVG-20010904/DTD/svg10.dtd">
<svg version="1.0" xmlns="http://www.w3.org/2000/svg"
 width="500.000000pt" height="500.000000pt" viewBox="0 0 500.000000 500.000000"
 preserveAspectRatio="xMidYMid meet">
<metadata>
Created by potrace 1.11, written by Peter Selinger 2001-2013
</metadata>
<g transform="translate(0.000000,500.000000) scale(0.100000,-0.100000)"
fill="#000000" stroke="none">
<path d="M2515 4150 c-3 -5 -14 -34 -25 -64 l-19 -55 82 -25 c129 -40 180 -74
214 -143 l28 -58 6 -855 c4 -594 10 -870 18 -905 64 -276 189 -436 436 -555
164 -80 309 -110 540 -110 313 0 566 83 741 243 109 100 174 213 216 372 21
77 22 111 29 850 4 472 11 791 17 823 28 141 69 235 154 359 l50 72 -23 30
-24 30 -362 0 -362 1 -21 -57 c-11 -31 -19 -61 -17 -68 3 -6 28 -17 57 -23 75
-18 174 -67 204 -103 14 -17 34 -56 43 -87 17 -52 18 -122 18 -862 0 -888 2
-854 -64 -995 -77 -165 -237 -286 -435 -330 -117 -26 -303 -17 -411 19 -164
56 -286 159 -355 299 -70 142 -70 140 -70 902 0 399 4 714 10 761 21 165 61
271 154 404 l54 77 -25 31 -24 32 -414 0 c-260 0 -416 -4 -420 -10z"/>
<path d="M470 3355 c-81 -23 -247 -107 -314 -160 -62 -50 -64 -57 -37 -127 10
-28 11 -28 109 -28 69 0 104 -4 118 -14 18 -14 19 -35 25 -593 6 -642 4 -626
76 -773 64 -132 182 -227 328 -265 124 -32 351 -12 480 42 123 51 267 169 311
254 8 16 18 29 23 29 4 0 11 -28 14 -62 8 -87 22 -131 60 -180 49 -65 105 -91
202 -96 63 -3 92 0 139 17 83 29 157 76 234 146 72 67 73 74 24 133 l-28 33
-64 -30 c-90 -43 -159 -43 -201 -2 l-29 29 0 831 0 831 -37 -5 c-41 -6 -411
-45 -424 -45 -4 0 -17 -14 -29 -30 l-22 -31 25 -32 c60 -79 120 -234 143 -370
21 -127 30 -509 15 -617 -26 -183 -82 -327 -170 -436 -91 -114 -201 -166 -351
-168 -198 -2 -301 77 -350 269 -19 74 -20 111 -20 724 0 691 1 675 -51 713
-35 26 -128 32 -199 13z"/>
</g>
</svg>
