<?xml version="1.0" standalone="no"?>
<!DOCTYPE svg PUBLIC "-//W3C//DTD SVG 20010904//EN"
 "http://www.w3.org/TR/2001/REC-SVG-20010904/DTD/svg10.dtd">
<svg version="1.0" xmlns="http://www.w3.org/2000/svg"
 width="500.000000pt" height="500.000000pt" viewBox="0 0 500.000000 500.000000"
 preserveAspectRatio="xMidYMid meet">
<metadata>
Created by potrace 1.11, written by Peter Selinger 2001-2013
</metadata>
<g transform="translate(0.000000,500.000000) scale(0.100000,-0.100000)"
fill="#000000" stroke="none">
<path d="M2375 4028 l-27 -31 34 -25 c18 -14 74 -66 123 -116 69 -70 99 -109
128 -168 29 -59 516 -1485 811 -2376 l28 -82 226 2 226 3 387 1170 c212 644
399 1199 414 1235 37 90 86 170 165 271 l67 86 -26 31 -26 32 -374 -2 -373 -3
-19 -50 c-33 -86 -34 -81 23 -94 195 -43 253 -192 187 -473 -28 -122 -592
-1869 -600 -1861 -8 10 -653 1997 -670 2066 -17 70 -8 151 22 183 32 34 81 59
160 79 35 9 66 18 68 20 1 2 -7 33 -19 69 l-22 66 -443 0 -443 0 -27 -32z"/>
<path d="M522 3221 c-35 -10 -101 -37 -147 -60 -96 -47 -229 -147 -221 -166 2
-7 10 -31 17 -54 l12 -41 104 0 c89 0 106 -3 122 -19 24 -24 16 21 101 -564
79 -534 113 -694 184 -843 88 -185 208 -269 418 -293 267 -30 478 81 656 348
192 287 285 646 299 1151 6 224 -3 527 -16 548 -5 8 -71 3 -231 -15 -216 -25
-226 -27 -254 -53 l-29 -28 36 -59 c134 -223 187 -458 174 -768 -19 -431 -151
-750 -349 -841 -53 -24 -76 -28 -143 -28 -117 0 -173 36 -226 148 -45 94 -63
195 -164 892 -52 362 -100 671 -106 686 -30 74 -115 95 -237 59z"/>
</g>
</svg>
