<?xml version="1.0" standalone="no"?>
<!DOCTYPE svg PUBLIC "-//W3C//DTD SVG 20010904//EN"
 "http://www.w3.org/TR/2001/REC-SVG-20010904/DTD/svg10.dtd">
<svg version="1.0" xmlns="http://www.w3.org/2000/svg"
 width="500.000000pt" height="500.000000pt" viewBox="0 0 500.000000 500.000000"
 preserveAspectRatio="xMidYMid meet">
<metadata>
Created by potrace 1.11, written by Peter Selinger 2001-2013
</metadata>
<g transform="translate(0.000000,500.000000) scale(0.100000,-0.100000)"
fill="#000000" stroke="none">
<path d="M2292 3588 c-20 -20 -14 -31 56 -94 43 -39 79 -83 99 -120 17 -33
144 -394 281 -804 138 -410 254 -753 257 -762 6 -16 23 -18 151 -18 l143 0
177 538 c97 295 179 541 182 546 3 6 45 -109 94 -255 48 -145 131 -391 184
-547 l96 -282 144 0 143 0 247 748 c135 411 261 779 278 817 18 39 56 101 85
138 51 66 52 69 35 88 -16 18 -33 19 -256 19 -238 0 -239 0 -247 -22 -24 -65
-24 -65 22 -76 126 -32 156 -146 94 -357 -53 -180 -361 -1125 -367 -1125 -9 0
-429 1299 -436 1351 -9 63 25 103 107 126 33 9 59 20 59 25 0 5 -7 24 -14 43
l-15 35 -285 0 c-278 0 -286 -1 -296 -21 -10 -18 -3 -27 57 -83 38 -35 81 -87
96 -115 29 -53 77 -184 77 -210 0 -15 -357 -1138 -367 -1155 -8 -12 -431 1296
-439 1354 -8 64 25 104 107 127 33 9 59 19 59 23 0 4 -7 24 -15 44 l-15 36
-283 0 c-207 0 -286 -3 -295 -12z"/>
<path d="M470 3069 c-58 -11 -174 -69 -223 -111 -36 -31 -37 -35 -26 -65 11
-32 12 -33 73 -33 34 0 70 -6 79 -12 12 -10 27 -86 62 -328 25 -173 56 -360
70 -414 58 -233 136 -321 309 -345 172 -25 294 44 399 224 37 62 48 74 52 59
65 -203 162 -285 337 -287 67 0 85 4 142 32 169 83 290 318 343 669 17 113 25
593 10 608 -4 4 -73 1 -153 -8 -180 -19 -190 -25 -147 -95 77 -127 105 -244
104 -438 -1 -298 -91 -548 -214 -594 -77 -30 -160 3 -200 78 -30 57 -41 100
-73 304 -24 146 -27 191 -28 454 0 160 -4 295 -9 299 -4 4 -73 1 -153 -8 -180
-19 -187 -24 -137 -107 72 -120 110 -308 98 -490 -25 -379 -172 -605 -341
-525 -42 20 -77 76 -99 159 -9 33 -44 257 -79 499 -68 468 -68 467 -126 478
-14 3 -45 1 -70 -3z"/>
</g>
</svg>
