<?xml version="1.0" standalone="no"?>
<!DOCTYPE svg PUBLIC "-//W3C//DTD SVG 20010904//EN"
 "http://www.w3.org/TR/2001/REC-SVG-20010904/DTD/svg10.dtd">
<svg version="1.0" xmlns="http://www.w3.org/2000/svg"
 width="500.000000pt" height="500.000000pt" viewBox="0 0 500.000000 500.000000"
 preserveAspectRatio="xMidYMid meet">
<metadata>
Created by potrace 1.11, written by Peter Selinger 2001-2013
</metadata>
<g transform="translate(0.000000,500.000000) scale(0.100000,-0.100000)"
fill="#000000" stroke="none">
<path d="M2390 4008 l-29 -31 81 -86 c119 -125 199 -230 443 -576 120 -170
281 -398 357 -505 76 -107 136 -202 134 -211 -7 -32 -701 -1026 -755 -1082
-63 -66 -176 -127 -274 -148 -33 -7 -56 -17 -54 -23 3 -6 13 -37 23 -68 l18
-58 363 0 363 0 36 33 36 33 -22 44 c-67 132 -77 229 -32 325 16 33 127 208
246 389 182 277 219 327 230 315 40 -42 443 -622 463 -666 13 -29 29 -79 35
-111 10 -54 9 -64 -11 -105 -18 -38 -33 -51 -81 -76 -33 -16 -78 -32 -100 -36
-46 -8 -48 -14 -19 -90 l20 -55 463 0 462 0 28 29 28 29 -74 73 c-41 41 -108
117 -150 169 -62 78 -764 1064 -808 1136 -12 19 15 62 343 536 247 357 373
531 410 564 62 57 132 93 238 124 l76 22 -25 69 -25 69 -357 0 -357 0 -38 -33
-39 -34 26 -59 c34 -77 58 -159 58 -200 0 -18 -10 -59 -21 -90 -26 -69 -455
-718 -469 -709 -21 13 -421 595 -445 647 -30 65 -47 150 -38 187 15 66 57 98
174 135 l66 21 -25 68 -25 67 -459 0 -459 0 -29 -32z"/>
<path d="M426 3210 c-55 -14 -132 -55 -193 -102 -81 -62 -81 -59 -33 -127 l42
-60 41 21 c23 11 68 23 102 25 69 5 105 -12 147 -69 26 -34 434 -735 445 -763
4 -12 -65 -88 -248 -273 -140 -141 -321 -325 -403 -409 l-150 -152 19 -40 18
-41 308 0 308 0 22 31 c13 18 18 34 12 38 -90 60 -149 145 -137 198 18 80 142
262 311 455 l32 37 167 -286 c92 -157 187 -312 211 -344 101 -134 256 -200
420 -178 74 10 184 66 251 126 l54 48 -42 55 c-23 30 -47 54 -53 53 -7 -1 -37
-11 -67 -22 -30 -11 -66 -20 -80 -20 -40 -1 -103 33 -131 70 -31 42 -459 774
-459 786 0 5 180 192 400 416 l401 406 -21 41 -21 40 -306 -2 -306 -3 -21 -28
-21 -28 58 -51 c66 -57 87 -92 87 -141 0 -42 -43 -126 -112 -222 -59 -81 -220
-275 -228 -275 -3 0 -77 124 -164 276 -88 152 -178 302 -202 334 -51 70 -133
134 -206 162 -61 23 -192 32 -252 18z"/>
</g>
</svg>
