<?xml version="1.0" standalone="no"?>
<!DOCTYPE svg PUBLIC "-//W3C//DTD SVG 20010904//EN"
 "http://www.w3.org/TR/2001/REC-SVG-20010904/DTD/svg10.dtd">
<svg version="1.0" xmlns="http://www.w3.org/2000/svg"
 width="500.000000pt" height="500.000000pt" viewBox="0 0 500.000000 500.000000"
 preserveAspectRatio="xMidYMid meet">
<metadata>
Created by potrace 1.11, written by Peter Selinger 2001-2013
</metadata>
<g transform="translate(0.000000,500.000000) scale(0.100000,-0.100000)"
fill="#000000" stroke="none">
<path d="M2513 4150 l-23 -28 81 -78 c153 -149 174 -181 604 -937 l317 -558
-5 -302 c-4 -266 -7 -312 -26 -385 -27 -107 -73 -206 -144 -309 l-56 -82 25
-31 26 -30 423 0 423 0 21 62 c12 34 18 65 14 68 -5 4 -37 14 -73 24 -100 27
-179 73 -211 124 -43 67 -49 135 -49 530 l0 362 286 507 c413 734 448 791 580
954 l65 80 -23 29 -23 29 -371 0 -370 1 -18 -52 c-9 -29 -20 -58 -22 -64 -3
-7 23 -20 66 -33 167 -51 223 -187 142 -347 -38 -76 -430 -776 -440 -786 -7
-7 -436 738 -500 868 -42 83 -47 121 -24 164 23 43 75 73 162 96 36 9 69 21
74 25 5 4 -1 34 -14 68 l-22 61 -437 -1 -436 0 -22 -29z"/>
<path d="M603 3371 c-114 -31 -254 -105 -338 -180 l-38 -33 17 -54 17 -54 104
0 c110 0 130 -7 140 -53 3 -12 6 -256 8 -542 l2 -520 28 -81 c70 -208 227
-345 431 -375 156 -23 370 17 511 95 79 45 183 140 228 208 l32 51 3 -269 c4
-433 -17 -617 -92 -779 -63 -137 -158 -211 -301 -236 -225 -39 -405 113 -405
342 0 137 46 256 141 364 27 31 49 60 49 65 0 41 -101 52 -219 25 -284 -67
-431 -397 -300 -672 35 -74 132 -182 204 -228 200 -128 556 -138 800 -21 230
110 373 309 442 616 15 67 17 193 20 1213 l4 1139 -28 -6 c-15 -3 -120 -15
-233 -26 -176 -19 -208 -25 -227 -43 -13 -11 -23 -26 -23 -33 0 -7 20 -41 44
-76 91 -132 119 -222 135 -435 36 -476 -16 -729 -186 -901 -135 -137 -362
-181 -523 -101 -94 48 -146 125 -174 262 -14 64 -16 168 -16 669 0 451 -3 599
-13 617 -33 65 -123 84 -244 52z"/>
</g>
</svg>
