<?xml version="1.0" standalone="no"?>
<!DOCTYPE svg PUBLIC "-//W3C//DTD SVG 20010904//EN"
 "http://www.w3.org/TR/2001/REC-SVG-20010904/DTD/svg10.dtd">
<svg version="1.0" xmlns="http://www.w3.org/2000/svg"
 width="500.000000pt" height="500.000000pt" viewBox="0 0 500.000000 500.000000"
 preserveAspectRatio="xMidYMid meet">
<metadata>
Created by potrace 1.11, written by Peter Selinger 2001-2013
</metadata>
<g transform="translate(0.000000,500.000000) scale(0.100000,-0.100000)"
fill="#000000" stroke="none">
<path d="M2592 4220 l-32 -30 2 -376 3 -376 65 -24 c36 -13 68 -24 72 -24 3 0
12 24 19 53 20 86 67 217 93 262 36 60 97 111 158 132 47 15 108 18 581 21
290 1 527 1 527 -2 0 -2 -376 -631 -835 -1396 -459 -765 -835 -1393 -835
-1396 0 -2 449 -4 998 -4 1116 0 1070 3 1129 -67 l33 -38 37 21 38 22 3 365 2
365 -62 21 c-73 25 -88 26 -88 7 0 -28 -52 -193 -79 -252 -57 -123 -128 -173
-274 -193 -48 -7 -274 -11 -579 -11 -435 0 -499 2 -495 15 4 8 378 636 832
1396 454 759 825 1382 825 1384 0 2 -393 5 -872 8 -758 4 -884 7 -958 21 -96
19 -174 51 -230 96 -21 16 -39 30 -41 30 -2 0 -19 -14 -37 -30z"/>
<path d="M506 3239 l-26 -31 2 -321 3 -322 64 -23 c35 -12 65 -21 67 -20 1 2
16 64 33 138 37 158 61 202 129 233 45 21 62 22 446 25 l399 3 -35 -48 c-19
-26 -287 -415 -596 -864 l-561 -816 21 -66 22 -67 596 0 c703 0 804 -8 945
-76 l50 -23 27 26 28 27 -2 324 -3 324 -62 23 c-34 13 -64 21 -66 17 -3 -4
-17 -61 -32 -127 -31 -136 -51 -181 -94 -218 -51 -43 -106 -48 -519 -45 l-383
3 553 800 c542 784 554 801 611 834 39 23 57 40 57 54 0 38 -23 96 -52 131
l-29 36 -602 0 c-475 0 -622 3 -697 15 -95 14 -179 39 -238 69 -30 15 -31 15
-56 -15z"/>
</g>
</svg>
